<svg id="SvgjsSvg1064" width="550" height="550" xmlns="http://www.w3.org/2000/svg" version="1.1" xmlns:xlink="http://www.w3.org/1999/xlink" xmlns:svgjs="http://svgjs.com/svgjs"><defs id="SvgjsDefs1065"></defs><g id="SvgjsG1066"><svg xmlns="http://www.w3.org/2000/svg" xmlns:xlink="http://www.w3.org/1999/xlink" enable-background="new 0 0 800 800" viewBox="0 0 800 800" width="550" height="550"><defs><path id="a" d="M185.27 509.04c-1.66 0-3.33-.12-5-.36l-32.3-4.72 1.82-12.43 32.3 4.72c8.61 1.26 17.18-2.68 21.84-10.03 8.23-12.98 23.71-18.94 38.51-14.84l.09.03 22.49 6.59-3.53 12.06-22.44-6.58c-9.43-2.59-19.27 1.21-24.5 9.47a34.738 34.738 0 0 1-29.28 16.09z" fill="#000000" class="color000 svgShape"></path></defs><clipPath id="b"><use overflow="visible" xlink:href="#a"></use></clipPath><g clip-path="url(#b)" fill="#000000" class="color000 svgShape"><path fill="none" d="M222.06 454.36h187.07v187.07H222.06z"></path><path fill="#bebebe" d="M222.06 454.36h187.07v187.07H222.06z" class="colorbcbec0 svgShape"></path></g><g clip-path="url(#b)" fill="#000000" class="color000 svgShape"><path fill="none" d="M34.98 454.36h187.07v187.07H34.98z"></path><path fill="#bebebe" d="M34.98 454.36h187.07v187.07H34.98z" class="colorbcbec0 svgShape"></path></g><path d="M185.27 510.04c-1.71 0-3.44-.13-5.14-.38l-32.3-4.72c-.26-.04-.5-.18-.66-.39s-.23-.48-.19-.74l1.82-12.43c.08-.55.58-.93 1.13-.84l32.3 4.72c8.21 1.2 16.41-2.56 20.85-9.57 8.46-13.35 24.39-19.49 39.63-15.27 0 0 .09.03.1.03l22.49 6.59c.25.08.47.25.6.48.13.23.16.51.08.76l-3.53 12.06c-.16.53-.71.83-1.24.68l-22.44-6.58c-8.98-2.47-18.38 1.16-23.38 9.04-6.58 10.37-17.84 16.56-30.12 16.56zm-36.17-6.93 31.31 4.58c1.61.23 3.24.35 4.85.35 11.59 0 22.22-5.84 28.42-15.63 5.47-8.63 15.76-12.61 25.61-9.9l21.5 6.3 2.97-10.14-21.53-6.31c-14.46-4.01-29.49 1.78-37.48 14.39a23.117 23.117 0 0 1-22.83 10.48l-31.31-4.58-1.51 10.46z" fill="#000000" class="color000 svgShape"></path><defs><path id="c" d="M616.14 509.38c-12.34 0-23.9-6.61-30.09-17.47-4.85-8.51-14.53-12.76-24.08-10.59l-21.16 4.61-2.67-12.28 21.11-4.6c14.92-3.4 30.11 3.27 37.73 16.62 4.31 7.56 12.69 11.88 21.35 11.03l32.49-3.21 1.24 12.5-32.49 3.21c-1.16.12-2.3.18-3.43.18z" fill="#000000" class="color000 svgShape"></path></defs><clipPath id="d"><use overflow="visible" xlink:href="#c"></use></clipPath><g clip-path="url(#d)" fill="#000000" class="color000 svgShape"><path fill="none" d="M596.2 454.36h187.07v187.07H596.2z"></path><path fill="#bebebe" d="M596.2 454.36h187.07v187.07H596.2z" class="colorbcbec0 svgShape"></path></g><g clip-path="url(#d)" fill="#000000" class="color000 svgShape"><path fill="none" d="M409.13 454.36H596.2v187.07H409.13z"></path><path fill="#bebebe" d="M409.13 454.36H596.2v187.07H409.13z" class="colorbcbec0 svgShape"></path></g><path d="M616.14 510.38c-12.77 0-24.64-6.89-30.96-17.98-4.64-8.12-13.87-12.18-22.99-10.11l-21.17 4.61c-.54.12-1.07-.23-1.19-.76l-2.67-12.28a.948.948 0 0 1 .14-.75c.14-.22.37-.38.63-.44l21.11-4.6c15.37-3.5 30.97 3.37 38.81 17.1 4.12 7.21 12.12 11.35 20.38 10.53l32.49-3.21a.993.993 0 0 1 1.09.9l1.24 12.5c.03.26-.05.53-.22.73s-.41.33-.67.36l-32.49 3.21c-1.18.13-2.36.19-3.53.19zm-49.19-30.63c8.15 0 15.78 4.31 19.96 11.66 5.97 10.47 17.17 16.97 29.22 16.97 1.1 0 2.21-.06 3.31-.16l31.49-3.12-1.04-10.51-31.49 3.12c-9.05.9-17.81-3.63-22.32-11.53-7.4-12.96-22.12-19.45-36.63-16.14l-20.14 4.39 2.25 10.32 20.19-4.4c1.74-.41 3.48-.6 5.2-.6z" fill="#000000" class="color000 svgShape"></path><path fill="#989898" d="m257.7 476.42 2.5 12.12a6.439 6.439 0 0 0 7.6 5l18.41-3.8-5.1-24.71-18.41 3.8a6.416 6.416 0 0 0-5 7.59z" class="color3fbdf1 svgShape"></path><path d="M266.49 494.67c-1.44 0-2.84-.42-4.07-1.22a7.357 7.357 0 0 1-3.19-4.71l-2.5-12.12c-.4-1.94-.02-3.93 1.07-5.58a7.361 7.361 0 0 1 4.7-3.19l18.41-3.8c.54-.11 1.07.24 1.18.78l5.1 24.71c.05.26 0 .53-.14.75-.15.22-.37.38-.63.43l-18.41 3.8c-.51.1-1.02.15-1.52.15zm13.84-28.47-17.43 3.6a5.395 5.395 0 0 0-3.44 2.33 5.39 5.39 0 0 0-.78 4.08l2.5 12.12a5.395 5.395 0 0 0 2.33 3.44 5.39 5.39 0 0 0 4.08.78l17.43-3.6-4.69-22.75z" fill="#000000" class="color000 svgShape"></path><path fill="#989898" d="m543.69 473.39-3.06 11.99a6.43 6.43 0 0 1-7.82 4.64l-18.22-4.65 6.25-24.45 18.22 4.65c3.44.88 5.51 4.38 4.63 7.82z" class="color3fbdf1 svgShape"></path><path d="M534.42 491.22c-.62 0-1.24-.08-1.85-.23l-18.22-4.65a.996.996 0 0 1-.72-1.22l6.25-24.45c.07-.26.23-.48.46-.61s.5-.17.76-.11l18.22 4.65c1.92.49 3.54 1.7 4.55 3.41s1.3 3.71.81 5.63l-3.06 11.99a7.366 7.366 0 0 1-3.41 4.55 7.488 7.488 0 0 1-3.79 1.04zm-18.61-6.58 17.25 4.41c1.4.36 2.87.15 4.11-.59a5.382 5.382 0 0 0 2.49-3.33l3.06-11.99c.74-2.9-1.02-5.86-3.92-6.6l-17.25-4.41-5.74 22.51zM374.61 296.92c0-1.69.25-3.11.76-4.26.38-.85.89-1.61 1.55-2.28.65-.67 1.37-1.17 2.15-1.5 1.04-.44 2.23-.66 3.58-.66 2.45 0 4.41.76 5.88 2.28 1.47 1.52 2.21 3.63 2.21 6.34 0 2.68-.73 4.78-2.19 6.3-1.46 1.52-3.41 2.27-5.85 2.27-2.47 0-4.44-.75-5.89-2.26-1.47-1.51-2.2-3.59-2.2-6.23zm3.46-.12c0 1.88.43 3.31 1.3 4.28.87.97 1.97 1.46 3.31 1.46s2.43-.48 3.29-1.44c.86-.96 1.29-2.41 1.29-4.34 0-1.9-.42-3.32-1.25-4.26s-1.94-1.41-3.33-1.41-2.5.47-3.34 1.42c-.85.95-1.27 2.38-1.27 4.29zM392.59 298.93c0-1.06.26-2.08.78-3.07.52-.99 1.26-1.75 2.22-2.27s2.02-.78 3.2-.78c1.82 0 3.31.59 4.48 1.77 1.16 1.18 1.75 2.68 1.75 4.48 0 1.82-.59 3.33-1.76 4.53s-2.65 1.8-4.44 1.8c-1.1 0-2.16-.25-3.16-.75s-1.76-1.23-2.28-2.19-.79-2.13-.79-3.52zm3.26.17c0 1.19.28 2.11.85 2.74.57.63 1.27.95 2.1.95.83 0 1.53-.32 2.09-.95.56-.63.84-1.56.84-2.77 0-1.18-.28-2.09-.84-2.72-.56-.63-1.26-.95-2.09-.95-.83 0-1.53.32-2.1.95-.56.65-.85 1.56-.85 2.75zM407.41 293.08h2.97v1.77c.38-.6.91-1.1 1.56-1.47a4.31 4.31 0 0 1 2.19-.57c1.4 0 2.58.55 3.56 1.64s1.46 2.62 1.46 4.58c0 2.01-.49 3.57-1.47 4.69-.98 1.11-2.17 1.67-3.57 1.67-.67 0-1.27-.13-1.81-.4-.54-.26-1.11-.72-1.71-1.36v6.06h-3.18v-16.61zm3.15 5.82c0 1.35.27 2.35.8 3 .54.65 1.19.97 1.96.97.74 0 1.36-.3 1.85-.89s.74-1.57.74-2.92c0-1.26-.25-2.2-.76-2.81-.51-.61-1.13-.92-1.88-.92-.78 0-1.42.3-1.94.9-.51.6-.77 1.49-.77 2.67zM420.56 301.69l3.2-.49c.14.62.41 1.09.83 1.41.42.32 1 .48 1.75.48.82 0 1.44-.15 1.86-.45.28-.21.42-.49.42-.85 0-.24-.08-.44-.23-.6-.16-.15-.51-.29-1.07-.42-2.57-.57-4.2-1.08-4.88-1.55-.95-.65-1.43-1.55-1.43-2.71 0-1.04.41-1.92 1.24-2.63.82-.71 2.1-1.07 3.83-1.07 1.65 0 2.87.27 3.67.8.8.54 1.35 1.33 1.65 2.38l-3 .56c-.13-.47-.37-.83-.73-1.08-.36-.25-.87-.37-1.54-.37-.84 0-1.44.12-1.8.35-.24.17-.36.38-.36.65 0 .23.11.42.32.58.29.21 1.28.51 2.98.9s2.88.86 3.55 1.42c.67.57 1 1.36 1 2.37 0 1.1-.46 2.05-1.38 2.85s-2.29 1.19-4.09 1.19c-1.64 0-2.94-.33-3.89-1-.98-.68-1.6-1.58-1.9-2.72zM442.29 300.84l-.83-8.43v-3.9h3.45v3.9l-.82 8.43h-1.8zm-.69 4.28v-3.19h3.18v3.19h-3.18zM392.15 347.2v-5.02h-10.2V338l10.81-15.83h4.01v15.81h3.09v4.2h-3.09v5.02h-4.62zm0-9.22v-8.52l-5.73 8.52h5.73zM410.23 322.17c2.42 0 4.3.86 5.66 2.58 1.62 2.04 2.43 5.42 2.43 10.15 0 4.72-.82 8.1-2.45 10.17-1.35 1.7-3.23 2.55-5.64 2.55-2.43 0-4.38-.93-5.87-2.8-1.49-1.86-2.23-5.19-2.23-9.97 0-4.69.82-8.07 2.45-10.13 1.35-1.7 3.23-2.55 5.65-2.55zm0 3.96c-.58 0-1.09.18-1.55.55-.45.37-.8 1.03-1.05 1.98-.33 1.24-.49 3.32-.49 6.24s.15 4.93.44 6.03.67 1.82 1.11 2.18c.45.36.96.54 1.54.54s1.09-.18 1.55-.55c.45-.37.8-1.03 1.05-1.98.33-1.22.49-3.3.49-6.22s-.15-4.93-.44-6.03-.67-1.82-1.11-2.19c-.45-.37-.96-.55-1.54-.55zM430.88 347.2v-5.02h-10.2V338l10.81-15.83h4.01v15.81h3.09v4.2h-3.09v5.02h-4.62zm0-9.22v-8.52l-5.73 8.52h5.73zM306.94 382.02V365.4h5.38c2.04 0 3.37.08 3.99.25.95.25 1.75.79 2.39 1.63s.96 1.91.96 3.24c0 1.02-.19 1.88-.56 2.57s-.84 1.24-1.41 1.64c-.57.4-1.15.66-1.74.79-.8.16-1.96.24-3.48.24h-2.19v6.27h-3.34zm3.36-13.81v4.72h1.84c1.32 0 2.21-.09 2.65-.26s.79-.45 1.05-.82c.25-.37.38-.8.38-1.29 0-.6-.18-1.1-.53-1.5s-.8-.64-1.35-.74c-.4-.08-1.21-.11-2.41-.11h-1.63zM324.78 373.65l-2.89-.52c.32-1.16.88-2.03 1.68-2.58.79-.56 1.97-.84 3.54-.84 1.42 0 2.48.17 3.17.5.7.34 1.18.76 1.47 1.28s.42 1.47.42 2.85l-.03 3.72c0 1.06.05 1.84.15 2.34.1.5.29 1.04.57 1.62h-3.15c-.08-.21-.18-.52-.31-.94-.05-.19-.09-.31-.11-.37-.54.53-1.13.93-1.75 1.19-.62.26-1.28.4-1.98.4-1.24 0-2.22-.34-2.93-1.01-.71-.67-1.07-1.52-1.07-2.55 0-.68.16-1.29.49-1.82s.78-.94 1.37-1.22c.58-.28 1.43-.53 2.53-.74 1.49-.28 2.52-.54 3.09-.78v-.32c0-.61-.15-1.05-.45-1.31-.3-.26-.87-.39-1.71-.39-.57 0-1.01.11-1.33.33-.31.21-.57.6-.77 1.16zm4.27 2.59c-.41.14-1.05.3-1.94.49-.88.19-1.46.37-1.73.56-.42.29-.62.67-.62 1.12 0 .45.17.83.5 1.16.33.32.76.49 1.27.49.57 0 1.12-.19 1.64-.57.39-.29.64-.64.76-1.05.08-.27.13-.79.13-1.55v-.65zM335.02 382.81l3.64.44c.06.42.2.71.42.87.3.23.78.34 1.43.34.83 0 1.45-.12 1.87-.37.28-.17.49-.43.63-.8.1-.26.15-.75.15-1.46v-1.76c-.95 1.3-2.15 1.95-3.6 1.95-1.62 0-2.9-.68-3.84-2.05-.74-1.08-1.11-2.43-1.11-4.04 0-2.02.49-3.56 1.46-4.62s2.18-1.6 3.62-1.6c1.49 0 2.72.65 3.68 1.96v-1.69h2.98v10.8c0 1.42-.12 2.48-.35 3.19-.23.7-.56 1.25-.99 1.65-.42.4-.99.71-1.69.94-.71.23-1.6.34-2.68.34-2.04 0-3.49-.35-4.34-1.05-.85-.7-1.28-1.58-1.28-2.66-.01-.1-.01-.23 0-.38zm2.84-7.06c0 1.28.25 2.21.74 2.81.49.59 1.1.89 1.83.89.78 0 1.44-.3 1.97-.91.54-.61.8-1.51.8-2.7 0-1.25-.26-2.17-.77-2.78-.51-.6-1.16-.91-1.95-.91-.76 0-1.39.3-1.89.89-.48.59-.73 1.49-.73 2.71zM356.46 378.19l3.17.53c-.41 1.16-1.05 2.05-1.93 2.66-.88.61-1.98.91-3.3.91-2.09 0-3.64-.68-4.65-2.05-.79-1.1-1.19-2.48-1.19-4.15 0-1.99.52-3.56 1.56-4.69 1.04-1.13 2.36-1.69 3.96-1.69 1.79 0 3.2.59 4.24 1.77 1.04 1.18 1.53 2.99 1.48 5.44h-7.98c.02.94.28 1.68.77 2.2s1.1.79 1.84.79c.5 0 .92-.14 1.26-.41.34-.27.6-.71.77-1.31zm.19-3.22c-.02-.92-.26-1.62-.71-2.1-.45-.48-1.01-.72-1.66-.72-.7 0-1.27.25-1.72.76-.45.51-.68 1.19-.67 2.06h4.76zM368.91 382.02V365.4h3.26l6.8 11.1v-11.1h3.12v16.62h-3.37l-6.7-10.84v10.84h-3.11zM384.88 375.83c0-1.06.26-2.08.78-3.07.52-.99 1.26-1.75 2.22-2.27.96-.52 2.02-.78 3.2-.78 1.82 0 3.31.59 4.48 1.77s1.75 2.68 1.75 4.48c0 1.82-.59 3.33-1.76 4.53-1.18 1.2-2.65 1.8-4.44 1.8-1.1 0-2.16-.25-3.16-.75s-1.76-1.23-2.28-2.19-.79-2.14-.79-3.52zm3.26.17c0 1.19.28 2.11.85 2.74.57.63 1.27.95 2.1.95s1.53-.32 2.09-.95c.56-.63.84-1.56.84-2.77 0-1.18-.28-2.09-.84-2.72-.56-.63-1.26-.95-2.09-.95s-1.53.32-2.1.95c-.56.64-.85 1.55-.85 2.75zM405.32 369.98v2.54h-2.18v4.85c0 .98.02 1.56.06 1.72.04.16.14.3.28.4.15.11.33.16.54.16.29 0 .72-.1 1.28-.31l.27 2.47c-.74.32-1.58.48-2.52.48-.57 0-1.09-.1-1.55-.29-.46-.19-.8-.44-1.01-.75-.22-.31-.37-.72-.45-1.24-.07-.37-.1-1.12-.1-2.24v-5.25h-1.46v-2.54h1.46v-2.39l3.2-1.86v4.25h2.18zM414.02 382.02V365.4h11.39v2.81h-8.04v3.93h6.94v2.81h-6.94v7.06h-3.35zM427.42 375.83c0-1.06.26-2.08.78-3.07.52-.99 1.26-1.75 2.22-2.27s2.02-.78 3.2-.78c1.82 0 3.31.59 4.48 1.77 1.16 1.18 1.75 2.68 1.75 4.48 0 1.82-.59 3.33-1.76 4.53s-2.65 1.8-4.44 1.8c-1.1 0-2.16-.25-3.16-.75s-1.76-1.23-2.28-2.19-.79-2.14-.79-3.52zm3.26.17c0 1.19.28 2.11.85 2.74.57.63 1.27.95 2.1.95.83 0 1.53-.32 2.09-.95.56-.63.84-1.56.84-2.77 0-1.18-.28-2.09-.84-2.72-.56-.63-1.26-.95-2.09-.95-.83 0-1.53.32-2.1.95-.56.64-.85 1.55-.85 2.75zM450.26 382.02v-1.8c-.44.64-1.01 1.15-1.73 1.52-.71.37-1.47.56-2.26.56-.81 0-1.53-.18-2.18-.53-.64-.35-1.11-.85-1.39-1.5s-.43-1.53-.43-2.66v-7.62h3.18v5.53c0 1.69.06 2.73.18 3.11.12.38.33.68.64.91.31.22.7.33 1.18.33.54 0 1.03-.15 1.46-.45.43-.3.73-.67.88-1.11.16-.44.24-1.52.24-3.25v-5.08h3.19v12.04h-2.96zM467.47 382.02h-3.19v-6.14c0-1.3-.07-2.14-.2-2.52-.14-.38-.36-.68-.66-.89-.31-.21-.67-.32-1.1-.32-.55 0-1.05.15-1.49.45-.44.3-.74.7-.9 1.2-.16.5-.24 1.42-.24 2.77v5.45h-3.19v-12.04h2.96v1.77c1.05-1.36 2.37-2.04 3.97-2.04.7 0 1.34.13 1.93.38.58.25 1.02.58 1.32.97.3.39.51.84.62 1.34.12.5.18 1.21.18 2.14v7.48zM481.74 382.02h-2.96v-1.77c-.49.69-1.07 1.2-1.74 1.54-.67.34-1.34.5-2.02.5-1.38 0-2.57-.56-3.55-1.67-.99-1.11-1.48-2.67-1.48-4.66 0-2.04.48-3.59 1.44-4.65.96-1.06 2.17-1.59 3.64-1.59 1.34 0 2.51.56 3.49 1.68v-5.98h3.18v16.6zm-8.51-6.28c0 1.28.18 2.21.53 2.79.51.83 1.23 1.25 2.15 1.25.73 0 1.36-.31 1.87-.94.51-.62.77-1.55.77-2.79 0-1.38-.25-2.38-.75-2.99-.5-.61-1.14-.91-1.92-.91-.76 0-1.39.3-1.9.9-.49.6-.75 1.49-.75 2.69zM484.88 382.02v-3.19h3.19v3.19h-3.19zM491.33 382.02v-3.19h3.18v3.19h-3.18zM497.77 382.02v-3.19h3.19v3.19h-3.19zM504.22 382.02v-3.19h3.18v3.19h-3.18zM510.67 382.02v-3.19h3.19v3.19h-3.19z" fill="#000000" class="color000 svgShape"></path><path fill="#ffffff" d="M522.24 474.3c-5.08 19.88-25.31 31.87-45.18 26.79l-30.36-7.76 18.39-71.98 30.36 7.76c19.88 5.08 31.87 25.31 26.79 45.19z" class="colord3e4ec svgShape"></path><path d="M486.32 503.26c-3.17 0-6.36-.4-9.51-1.2l-30.35-7.76a.983.983 0 0 1-.61-.46c-.13-.23-.17-.5-.11-.76l18.39-71.98c.14-.54.68-.86 1.22-.72l30.36 7.76c9.87 2.52 18.17 8.74 23.37 17.5 5.2 8.76 6.67 19.03 4.15 28.9-2.52 9.87-8.74 18.17-17.5 23.37-5.99 3.54-12.65 5.35-19.41 5.35zm-38.4-10.65 29.39 7.51c9.36 2.39 19.08.99 27.38-3.93s14.19-12.79 16.58-22.14c2.39-9.35.99-19.08-3.93-27.38s-12.79-14.19-22.14-16.58l-29.39-7.51-17.89 70.03z" fill="#000000" class="color000 svgShape"></path><path fill="#2e2e2e" d="M455.53 414.45 435 494.8a5.49 5.49 0 0 0 3.96 6.68 5.49 5.49 0 0 0 6.68-3.96l20.53-80.35a5.49 5.49 0 0 0-3.96-6.68 5.49 5.49 0 0 0-6.68 3.96z" class="color2e2e2e svgShape"></path><path d="M440.31 502.65c-.53 0-1.07-.07-1.61-.2-3.47-.89-5.57-4.43-4.68-7.89l20.53-80.35a6.481 6.481 0 0 1 2.98-3.98 6.516 6.516 0 0 1 4.92-.71c1.68.43 3.09 1.49 3.98 2.98s1.13 3.24.71 4.92l-20.53 80.35a6.516 6.516 0 0 1-6.3 4.88zm20.53-91.33c-.8 0-1.58.21-2.28.63a4.477 4.477 0 0 0-2.06 2.75l-20.53 80.35c-.61 2.4.84 4.85 3.24 5.46 2.4.61 4.85-.84 5.46-3.24l20.53-80.35c.3-1.16.12-2.37-.49-3.4a4.477 4.477 0 0 0-3.87-2.2zm-5.31 3.13z" fill="#000000" class="color000 svgShape"></path><path fill="#2e2e2e" d="m481.07 420.97-20.53 80.35a5.49 5.49 0 0 0 3.96 6.68 5.49 5.49 0 0 0 6.68-3.96l20.53-80.35a5.49 5.49 0 0 0-3.96-6.68 5.497 5.497 0 0 0-6.68 3.96z" class="color2e2e2e svgShape"></path><path d="M465.85 509.18c-.53 0-1.07-.07-1.61-.2-3.47-.88-5.57-4.43-4.68-7.89l20.53-80.35a6.481 6.481 0 0 1 2.98-3.98 6.464 6.464 0 0 1 4.92-.71c1.68.43 3.09 1.49 3.98 2.98.88 1.49 1.13 3.24.71 4.92l-20.53 80.35a6.527 6.527 0 0 1-6.3 4.88zm20.53-91.34c-.8 0-1.58.21-2.28.63a4.477 4.477 0 0 0-2.06 2.75l-20.53 80.35a4.489 4.489 0 1 0 8.7 2.22l20.53-80.35c.3-1.16.12-2.37-.49-3.4a4.477 4.477 0 0 0-3.87-2.2zm-5.31 3.13z" fill="#000000" class="color000 svgShape"></path><path fill="#ffffff" d="M279.09 478.32c4.15 20.09 23.8 33.01 43.89 28.86l30.68-6.34-15.03-72.76-30.68 6.34c-20.09 4.16-33.01 23.81-28.86 43.9z" class="colord3e4ec svgShape"></path><path d="M315.46 508.96c-17.71 0-33.63-12.43-37.35-30.43l.98-.2-.98.2c-2.06-9.98-.11-20.16 5.49-28.67 5.6-8.51 14.18-14.34 24.16-16.4l30.68-6.34c.54-.11 1.07.24 1.18.78l15.03 72.75c.05.26 0 .53-.14.75-.15.22-.37.38-.63.43l-30.68 6.34c-2.61.53-5.2.79-7.74.79zm22.4-79.69-29.7 6.14c-9.46 1.95-17.58 7.47-22.89 15.54-5.3 8.07-7.15 17.72-5.2 27.17 4.03 19.52 23.19 32.12 42.71 28.09l29.7-6.14-14.62-70.8z" fill="#000000" class="color000 svgShape"></path><path fill="#2e2e2e" d="m348.51 421.64 16.78 81.22a5.5 5.5 0 0 1-4.27 6.49 5.5 5.5 0 0 1-6.49-4.27l-16.78-81.22a5.5 5.5 0 0 1 4.27-6.49 5.49 5.49 0 0 1 6.49 4.27z" class="color2e2e2e svgShape"></path><path d="M359.9 510.46a6.48 6.48 0 0 1-3.55-1.07 6.428 6.428 0 0 1-2.79-4.11l-16.78-81.22c-.35-1.7-.02-3.43.93-4.88a6.428 6.428 0 0 1 4.11-2.79c1.7-.35 3.43-.02 4.88.93 1.45.95 2.44 2.41 2.79 4.11l16.78 81.22c.35 1.7.02 3.43-.93 4.88s-2.41 2.44-4.11 2.79c-.44.1-.89.14-1.33.14zm-16.76-92.2a4.466 4.466 0 0 0-3.75 2.02c-.66 1-.89 2.2-.65 3.38l16.78 81.22c.24 1.17.93 2.18 1.93 2.84 1 .66 2.2.89 3.38.64 1.17-.24 2.18-.93 2.84-1.93s.89-2.2.65-3.38l-16.78-81.22c-.44-2.11-2.32-3.57-4.4-3.57z" fill="#000000" class="color000 svgShape"></path><path fill="#2e2e2e" d="m322.7 426.97 16.78 81.22a5.5 5.5 0 0 1-4.27 6.49 5.5 5.5 0 0 1-6.49-4.27l-16.78-81.22a5.5 5.5 0 0 1 4.27-6.49 5.5 5.5 0 0 1 6.49 4.27z" class="color2e2e2e svgShape"></path><path d="M334.08 515.79a6.4 6.4 0 0 1-3.55-1.07 6.428 6.428 0 0 1-2.79-4.11l-16.78-81.22c-.35-1.7-.02-3.43.93-4.88a6.428 6.428 0 0 1 4.11-2.79c3.5-.72 6.95 1.54 7.67 5.04l16.78 81.22c.72 3.5-1.54 6.95-5.04 7.67-.44.1-.88.14-1.33.14zm-16.76-92.2c-.3 0-.6.03-.91.09-2.42.5-3.99 2.88-3.49 5.31l16.78 81.22c.5 2.42 2.88 3.99 5.31 3.49 2.42-.5 3.99-2.88 3.49-5.31l-16.78-81.22a4.497 4.497 0 0 0-4.4-3.58z" fill="#000000" class="color000 svgShape"></path><defs><path id="e" d="m363.09 492.22-2.69-13.04 21.07-4.35c3.6-.74 7.12 1.57 7.87 5.17.74 3.6-1.57 7.12-5.17 7.87l-21.08 4.35z" fill="#000000" class="color000 svgShape"></path></defs><clipPath id="f"><use overflow="visible" xlink:href="#e"></use></clipPath><g clip-path="url(#f)" fill="#000000" class="color000 svgShape"><path fill="none" d="M222.06 454.36h187.07v187.07H222.06z"></path><path fill="#bebebe" d="M222.06 454.36h187.07v187.07H222.06z" class="colorbcbec0 svgShape"></path></g><path d="M363.09 493.22c-.46 0-.88-.33-.98-.8l-2.69-13.04c-.05-.26 0-.53.14-.75.15-.22.37-.38.63-.43l21.07-4.35c2-.41 4.05-.02 5.76 1.1s2.88 2.85 3.29 4.85c.85 4.13-1.81 8.19-5.95 9.05l-21.07 4.35c-.06.01-.13.02-.2.02zm-1.51-13.26 2.29 11.08 20.09-4.15a5.673 5.673 0 0 0 4.4-6.69 5.637 5.637 0 0 0-2.43-3.58 5.592 5.592 0 0 0-4.25-.81l-20.1 4.15z" fill="#000000" class="color000 svgShape"></path><defs><path id="g" d="m350.71 432.28 2.69 13.04 21.07-4.35c3.6-.74 5.92-4.27 5.17-7.87a6.653 6.653 0 0 0-7.87-5.17l-21.06 4.35z" fill="#000000" class="color000 svgShape"></path></defs><clipPath id="h"><use overflow="visible" xlink:href="#g"></use></clipPath><g clip-path="url(#h)" fill="#000000" class="color000 svgShape"><path fill="none" d="M222.06 267.29h187.07v187.07H222.06z"></path><path fill="#bebebe" d="M222.06 267.29h187.07v187.07H222.06z" class="colorbcbec0 svgShape"></path></g><path d="M353.4 446.32c-.19 0-.38-.06-.55-.16a.996.996 0 0 1-.43-.63l-2.69-13.04c-.11-.54.24-1.07.78-1.18l21.07-4.35a7.668 7.668 0 0 1 9.05 5.95c.41 2 .02 4.05-1.1 5.76a7.587 7.587 0 0 1-4.85 3.29l-21.07 4.35c-.07 0-.14.01-.21.01zm-1.51-13.27 2.29 11.08 20.09-4.15a5.666 5.666 0 0 0 4.4-6.69 5.673 5.673 0 0 0-6.69-4.4l-20.09 4.16z" fill="#000000" class="color000 svgShape"></path></svg></g></svg>